<svg width="32" height="32" viewBox="0 0 32 32" fill="none" xmlns="http://www.w3.org/2000/svg">
<path d="M28.8625 21.5C28.9943 21.7289 29.0301 22.0007 28.9622 22.256C28.8943 22.5113 28.7281 22.7293 28.5 22.8625L16.5 29.8625C16.3488 29.9528 16.1761 30.0005 16 30.0005C15.8239 30.0005 15.6512 29.9528 15.5 29.8625L3.5 22.8625C3.29276 22.7196 3.14701 22.5039 3.09185 22.2583C3.03668 22.0127 3.07616 21.7554 3.20239 21.5376C3.32863 21.3199 3.53234 21.1577 3.77287 21.0836C4.0134 21.0094 4.27305 21.0286 4.5 21.1375L16 27.8375L27.5 21.1375C27.7289 21.0057 28.0007 20.9699 28.256 21.0378C28.5113 21.1057 28.7293 21.2719 28.8625 21.5ZM27.5 15.1375L16 21.8375L4.5 15.1375C4.27305 15.0286 4.0134 15.0094 3.77287 15.0835C3.53234 15.1577 3.32863 15.3199 3.20239 15.5376C3.07616 15.7554 3.03668 16.0127 3.09185 16.2583C3.14701 16.5039 3.29276 16.7196 3.5 16.8625L15.5 23.8625C15.6512 23.9528 15.8239 24.0005 16 24.0005C16.1761 24.0005 16.3488 23.9528 16.5 23.8625L28.5 16.8625C28.6243 16.8029 28.735 16.7182 28.825 16.6137C28.9151 16.5092 28.9825 16.3873 29.0231 16.2555C29.0638 16.1237 29.0767 15.985 29.0611 15.848C29.0456 15.7109 29.0018 15.5786 28.9327 15.4593C28.8635 15.34 28.7704 15.2363 28.6593 15.1547C28.5481 15.0731 28.4212 15.0154 28.2867 14.9852C28.1522 14.9549 28.0128 14.9529 27.8774 14.9791C27.742 15.0053 27.6135 15.0592 27.5 15.1375ZM3.5 10.8625L15.5 17.8625C15.6512 17.9528 15.8239 18.0005 16 18.0005C16.1761 18.0005 16.3488 17.9528 16.5 17.8625L28.5 10.8625C28.6504 10.7743 28.7751 10.6483 28.8617 10.497C28.9484 10.3457 28.9939 10.1743 28.9939 10C28.9939 9.82565 28.9484 9.65433 28.8617 9.50304C28.7751 9.35174 28.6504 9.22573 28.5 9.1375L16.5 2.1375C16.3493 2.04589 16.1764 1.99744 16 1.99744C15.8236 1.99744 15.6507 2.04589 15.5 2.1375L3.5 9.1375C3.34962 9.22573 3.22493 9.35174 3.13828 9.50304C3.05164 9.65433 3.00606 9.82565 3.00606 10C3.00606 10.1743 3.05164 10.3457 3.13828 10.497C3.22493 10.6483 3.34962 10.7743 3.5 10.8625V10.8625Z" fill="#808080"/>
</svg>